<svg width="64" height="19" viewBox="0 0 64 19" fill="none" xmlns="http://www.w3.org/2000/svg">
<rect width="64" height="19" rx="9.5" fill="#F9F9F9"/>
<path d="M5.245 13.5L3.165 6.3H3.93L5.615 12.245L7.29 6.305L8.06 6.3L9.745 12.245L11.42 6.3H12.19L10.115 13.5H9.375L7.675 7.595L5.985 13.5H5.245ZM14.7448 13.65C14.2181 13.65 13.7614 13.5333 13.3748 13.3C12.9914 13.0667 12.6931 12.7383 12.4798 12.315C12.2664 11.8917 12.1598 11.395 12.1598 10.825C12.1598 10.235 12.2648 9.725 12.4748 9.295C12.6848 8.865 12.9798 8.53333 13.3598 8.3C13.7431 8.06667 14.1948 7.95 14.7148 7.95C15.2481 7.95 15.7031 8.07333 16.0798 8.32C16.4564 8.56333 16.7414 8.91333 16.9348 9.37C17.1281 9.82667 17.2164 10.3717 17.1998 11.005H16.4498V10.745C16.4364 10.045 16.2848 9.51667 15.9948 9.16C15.7081 8.80333 15.2881 8.625 14.7348 8.625C14.1548 8.625 13.7098 8.81333 13.3998 9.19C13.0931 9.56667 12.9398 10.1033 12.9398 10.8C12.9398 11.48 13.0931 12.0083 13.3998 12.385C13.7098 12.7583 14.1481 12.945 14.7148 12.945C15.1014 12.945 15.4381 12.8567 15.7248 12.68C16.0148 12.5 16.2431 12.2417 16.4098 11.905L17.0948 12.17C16.8814 12.64 16.5664 13.005 16.1498 13.265C15.7364 13.5217 15.2681 13.65 14.7448 13.65ZM12.6798 11.005V10.39H16.8048V11.005H12.6798ZM20.5944 13.65C20.0677 13.65 19.611 13.5333 19.2244 13.3C18.841 13.0667 18.5427 12.7383 18.3294 12.315C18.116 11.8917 18.0094 11.395 18.0094 10.825C18.0094 10.235 18.1144 9.725 18.3244 9.295C18.5344 8.865 18.8294 8.53333 19.2094 8.3C19.5927 8.06667 20.0444 7.95 20.5644 7.95C21.0977 7.95 21.5527 8.07333 21.9294 8.32C22.306 8.56333 22.591 8.91333 22.7844 9.37C22.9777 9.82667 23.066 10.3717 23.0494 11.005H22.2994V10.745C22.286 10.045 22.1344 9.51667 21.8444 9.16C21.5577 8.80333 21.1377 8.625 20.5844 8.625C20.0044 8.625 19.5594 8.81333 19.2494 9.19C18.9427 9.56667 18.7894 10.1033 18.7894 10.8C18.7894 11.48 18.9427 12.0083 19.2494 12.385C19.5594 12.7583 19.9977 12.945 20.5644 12.945C20.951 12.945 21.2877 12.8567 21.5744 12.68C21.8644 12.5 22.0927 12.2417 22.2594 11.905L22.9444 12.17C22.731 12.64 22.416 13.005 21.9994 13.265C21.586 13.5217 21.1177 13.65 20.5944 13.65ZM18.5294 11.005V10.39H22.6544V11.005H18.5294ZM24.154 13.5L24.159 6.3H24.899V10.7L27.309 8.1H28.289L25.759 10.8L28.619 13.5H27.549L24.899 10.9V13.5H24.154ZM29.2199 13.5V6.15H29.9549V13.5H29.2199ZM32.2239 15.9L33.2689 13.065L33.2839 13.905L30.9189 8.1H31.6989L33.6389 12.955H33.3189L35.1089 8.1H35.8589L32.9589 15.9H32.2239Z" fill="#9D9D9D"/>
<path d="M59.3 7.21252L56.5833 12.1025C56.2625 12.68 55.7375 12.68 55.4166 12.1025L52.7 7.21252" stroke="#9D9D9D" stroke-width="1.5" stroke-miterlimit="10" stroke-linecap="round" stroke-linejoin="round"/>
</svg>
