<svg width="40" height="34" viewBox="0 0 40 34" fill="none" xmlns="http://www.w3.org/2000/svg">
<g clip-path="url(#clip0_230_17)">
<path d="M20 0C8.96308 0 0 7.61862 0 17C0 26.3814 8.96308 34 20 34C31.0369 34 40 26.3814 40 17C40 7.61862 31.0369 0 20 0ZM20 1.31031C30.2046 1.31031 38.4615 8.32608 38.4615 17C38.4615 25.6739 30.2046 32.6923 20 32.6923C9.79539 32.6923 1.53846 25.6739 1.53846 17C1.53846 8.32608 9.79539 1.31031 20 1.31031ZM24.5877 7.44469C23.9954 7.44469 23.4031 7.63431 22.9569 8.01485C22.5273 8.38403 22.2863 8.88236 22.2863 9.40165C22.2863 9.92094 22.5273 10.4193 22.9569 10.7885L23.5 11.2514L13.7108 19.5722L13.1677 19.1119C12.7328 18.7466 12.1461 18.5417 11.5346 18.5417C10.9232 18.5417 10.3364 18.7466 9.90154 19.1119C9.4719 19.4811 9.23093 19.9794 9.23093 20.4987C9.23093 21.018 9.4719 21.5164 9.90154 21.8855L14.2554 25.5837C15.1492 26.3448 16.6246 26.3448 17.5169 25.5837C17.9461 25.2146 18.1868 24.7165 18.1868 24.1975C18.1868 23.6786 17.9461 23.1805 17.5169 22.8114L16.9738 22.3485L26.7631 14.025L27.3077 14.4866C28.2015 15.2477 29.6769 15.2477 30.5708 14.4866C31.0004 14.1174 31.2414 13.6191 31.2414 13.0998C31.2414 12.5805 31.0004 12.0822 30.5708 11.713L26.22 8.01485C26.0057 7.8333 25.7513 7.68949 25.4715 7.59165C25.1916 7.49382 24.8903 7.44388 24.5877 7.44469ZM24.5877 8.74323C24.7831 8.74323 24.9769 8.80731 25.1323 8.93938L29.4831 12.6375C29.5568 12.6971 29.6154 12.7689 29.6555 12.8483C29.6956 12.9278 29.7163 13.0133 29.7163 13.0998C29.7163 13.1863 29.6956 13.2718 29.6555 13.3513C29.6154 13.4308 29.5568 13.5025 29.4831 13.5621C29.413 13.6247 29.3286 13.6746 29.2351 13.7086C29.1416 13.7427 29.0409 13.7603 28.9392 13.7603C28.8375 13.7603 28.7369 13.7427 28.6434 13.7086C28.5499 13.6746 28.4655 13.6247 28.3954 13.5621L27.8523 13.1005L24.5877 10.3255L24.0446 9.86392C23.9709 9.80432 23.9123 9.7326 23.8722 9.65314C23.8321 9.57368 23.8114 9.48812 23.8114 9.40165C23.8114 9.31519 23.8321 9.22963 23.8722 9.15017C23.9123 9.0707 23.9709 8.99899 24.0446 8.93938C24.1153 8.87774 24.1998 8.82866 24.293 8.79498C24.3862 8.76131 24.4864 8.74372 24.5877 8.74323ZM24.5877 12.1759L25.6754 13.1005L15.8862 21.4239L14.7985 20.4994L24.5877 12.1759ZM11.5323 19.8377C11.7262 19.8377 11.9215 19.9044 12.0769 20.0365L12.62 20.4994L12.5985 20.5164L13.1431 20.9793L15.8662 23.2913L15.8862 23.273L16.4308 23.7346C16.5045 23.7942 16.5631 23.8659 16.6032 23.9454C16.6433 24.0249 16.664 24.1104 16.664 24.1969C16.664 24.2833 16.6433 24.3689 16.6032 24.4484C16.5631 24.5278 16.5045 24.5995 16.4308 24.6592C16.3606 24.7218 16.2763 24.7717 16.1828 24.8057C16.0893 24.8398 15.9886 24.8574 15.8869 24.8574C15.7852 24.8574 15.6845 24.8398 15.5911 24.8057C15.4976 24.7717 15.4132 24.7218 15.3431 24.6592L10.9892 20.961C10.9155 20.9014 10.8569 20.8297 10.8168 20.7502C10.7767 20.6708 10.756 20.5852 10.756 20.4987C10.756 20.4123 10.7767 20.3267 10.8168 20.2472C10.8569 20.1678 10.9155 20.0961 10.9892 20.0365C11.0599 19.9745 11.1442 19.9251 11.2374 19.891C11.3306 19.8568 11.4308 19.8387 11.5323 19.8377Z" fill="black"/>
</g>
<defs>
<clipPath id="clip0_230_17">
<rect width="40" height="34" fill="white"/>
</clipPath>
</defs>
</svg>
